<svg width="52" height="52" viewBox="0 0 52 52" fill="none" xmlns="http://www.w3.org/2000/svg">
<rect width="52" height="52" rx="26" fill="url(#paint0_linear_5_1305)" fill-opacity="0.1"/>
<rect x="0.5" y="0.5" width="51" height="51" rx="25.5" stroke="url(#paint1_linear_5_1305)" stroke-opacity="0.2"/>
<path d="M34.8428 31.1449C34.5101 31.9135 34.1163 32.6211 33.66 33.2715C33.0381 34.1583 32.5288 34.7721 32.1364 35.113C31.528 35.6724 30.8762 35.959 30.1782 35.9753C29.6771 35.9753 29.0728 35.8327 28.3693 35.5434C27.6636 35.2555 27.015 35.113 26.422 35.113C25.8 35.113 25.133 35.2555 24.4195 35.5434C23.7049 35.8327 23.1293 35.9834 22.6892 35.9984C22.0198 36.0269 21.3526 35.7322 20.6867 35.113C20.2616 34.7422 19.73 34.1067 19.0931 33.2063C18.4098 32.2449 17.848 31.13 17.4078 29.8589C16.9365 28.486 16.7002 27.1565 16.7002 25.8694C16.7002 24.3951 17.0188 23.1235 17.6569 22.0578C18.1584 21.2019 18.8256 20.5267 19.6606 20.0311C20.4956 19.5354 21.3979 19.2828 22.3695 19.2666C22.9011 19.2666 23.5983 19.4311 24.4647 19.7543C25.3287 20.0786 25.8834 20.243 26.1266 20.243C26.3085 20.243 26.9247 20.0507 27.9694 19.6674C28.9573 19.3119 29.7911 19.1647 30.4742 19.2226C32.3251 19.372 33.7157 20.1017 34.6405 21.4162C32.9851 22.4192 32.1662 23.824 32.1825 25.6262C32.1975 27.03 32.7067 28.1981 33.7076 29.1256C34.1611 29.5561 34.6676 29.8888 35.2312 30.1251C35.109 30.4795 34.98 30.819 34.8428 31.1449ZM30.5978 14.4404C30.5978 15.5406 30.1958 16.5679 29.3946 17.5188C28.4277 18.6492 27.2582 19.3024 25.99 19.1993C25.9738 19.0673 25.9645 18.9284 25.9645 18.7824C25.9645 17.7261 26.4243 16.5958 27.2408 15.6715C27.6485 15.2036 28.167 14.8145 28.7957 14.5041C29.4231 14.1983 30.0166 14.0292 30.5747 14.0002C30.591 14.1473 30.5978 14.2944 30.5978 14.4404V14.4404Z" fill="#CAFF33"/>
<defs>
<linearGradient id="paint0_linear_5_1305" x1="26" y1="-34.4324" x2="26" y2="134.216" gradientUnits="userSpaceOnUse">
<stop stop-color="#CAFF33"/>
<stop offset="0.467671" stop-color="#CAFF33" stop-opacity="0"/>
</linearGradient>
<linearGradient id="paint1_linear_5_1305" x1="26" y1="-90.2973" x2="26" y2="99.0811" gradientUnits="userSpaceOnUse">
<stop stop-color="#CAFF33"/>
<stop offset="0.716291" stop-color="#CAFF33" stop-opacity="0"/>
</linearGradient>
</defs>
</svg>
