<svg width="44" height="44" viewBox="0 0 44 44" fill="none" xmlns="http://www.w3.org/2000/svg">
<path d="M4.84402 20.9213L4.84401 20.9213L4.84306 20.9241C3.97266 23.4976 3.53369 25.9875 3.53369 28.3916V35.5375C3.53369 36.3659 4.20526 37.0375 5.03369 37.0375H14.2309C15.0593 37.0375 15.7309 36.3659 15.7309 35.5375L15.7309 28.3118L15.7308 28.3076C15.7054 25.2765 16.1886 22.52 17.1727 20.0315C18.0778 17.7776 19.1728 15.6055 20.4579 13.515C20.8813 12.8262 20.699 11.913 20.0145 11.4568L14.9228 8.06394L14.9228 8.06394C14.3741 7.69826 13.6366 7.72768 13.1287 8.17744C11.4242 9.68649 9.87445 11.4883 8.4778 13.5791L8.47711 13.5802C6.95041 15.8781 5.73918 18.3254 4.84402 20.9213ZM24.5557 20.9213L24.5547 20.9241C23.6843 23.4976 23.2454 25.9875 23.2454 28.3916V35.5375C23.2454 36.3659 23.917 37.0375 24.7454 37.0375H33.9425C34.771 37.0375 35.4425 36.3659 35.4425 35.5375L35.4426 28.3118L35.4425 28.3076C35.4171 25.2766 35.9003 22.5202 36.8843 20.0319C37.7894 17.7778 38.8844 15.6056 40.1696 13.515C40.593 12.8262 40.4107 11.913 39.7261 11.4568L34.6345 8.06394L34.6345 8.06394C34.0858 7.69826 33.3483 7.72768 32.8403 8.17744L33.1718 8.5518L32.8403 8.17744C31.1359 9.68649 29.5861 11.4883 28.1895 13.5791L28.1888 13.5802C26.6621 15.8781 25.4509 18.3254 24.5557 20.9213Z" fill="url(#paint0_linear_4_2425)" stroke="#CAFF33"/>
<defs>
<linearGradient id="paint0_linear_4_2425" x1="22.1513" y1="8.06689" x2="22.1513" y2="36.5375" gradientUnits="userSpaceOnUse">
<stop stop-color="#CAFF33"/>
<stop offset="1" stop-color="#191919"/>
</linearGradient>
</defs>
</svg>
