<svg width="60" height="60" viewBox="0 0 60 60" fill="none" xmlns="http://www.w3.org/2000/svg">
<path fill-rule="evenodd" clip-rule="evenodd" d="M7.5 16.875C7.5 15.8395 8.33947 15 9.375 15H50.625C51.6605 15 52.5 15.8395 52.5 16.875C52.5 17.9105 51.6605 18.75 50.625 18.75H9.375C8.33947 18.75 7.5 17.9105 7.5 16.875ZM7.5 30C7.5 28.9645 8.33947 28.125 9.375 28.125H50.625C51.6605 28.125 52.5 28.9645 52.5 30C52.5 31.0355 51.6605 31.875 50.625 31.875H9.375C8.33947 31.875 7.5 31.0355 7.5 30ZM7.5 43.125C7.5 42.0895 8.33947 41.25 9.375 41.25H50.625C51.6605 41.25 52.5 42.0895 52.5 43.125C52.5 44.1605 51.6605 45 50.625 45H9.375C8.33947 45 7.5 44.1605 7.5 43.125Z" fill="#1C1C1C"/>
</svg>
