<svg width="16" height="17" viewBox="0 0 16 17" fill="none" xmlns="http://www.w3.org/2000/svg">
<path fill-rule="evenodd" clip-rule="evenodd" d="M5 4C5 2.89543 5.89543 2 7 2H9C10.1046 2 11 2.89543 11 4V4.13665C11.6216 4.19356 12.2383 4.26798 12.8494 4.35941C13.8187 4.50445 14.5 5.34775 14.5 6.30379V8.32593C14.5 9.13336 14.0109 9.89417 13.2091 10.1607C11.5711 10.7053 9.81945 11 8.00002 11C6.18058 11 4.42895 10.7053 2.79085 10.1607C1.98909 9.89415 1.5 9.13334 1.5 8.32591V6.30379C1.5 5.34776 2.18127 4.50446 3.15064 4.35941C3.76174 4.26798 4.37836 4.19356 5 4.13665V4ZM10 4V4.06055C9.33843 4.02038 8.67157 4 8 4C7.32843 4 6.66157 4.02038 6 4.06055V4C6 3.44772 6.44772 3 7 3H9C9.55228 3 10 3.44772 10 4ZM8 9.5C8.27614 9.5 8.5 9.27614 8.5 9C8.5 8.72386 8.27614 8.5 8 8.5C7.72386 8.5 7.5 8.72386 7.5 9C7.5 9.27614 7.72386 9.5 8 9.5Z" fill="white"/>
<path d="M2 12.7666V10.9026C2.14869 10.9842 2.30731 11.0538 2.47536 11.1096C4.21391 11.6877 6.07201 12 8.00002 12C9.92802 12 11.7861 11.6877 13.5246 11.1097C13.6927 11.0538 13.8513 10.9842 14 10.9026V12.7666C14 13.7346 13.3018 14.585 12.3179 14.7156C10.905 14.9032 9.46369 15 8 15C6.53631 15 5.09498 14.9032 3.68209 14.7156C2.69816 14.585 2 13.7346 2 12.7666Z" fill="white"/>
</svg>
