<svg width="32" height="32" viewBox="0 0 32 32" fill="none" xmlns="http://www.w3.org/2000/svg">
<g clip-path="url(#clip0_21_1251)">
<path d="M32 16C32 7.16344 24.8366 0 16 0C7.16344 0 0 7.16344 0 16C0 24.8366 7.16344 32 16 32C24.8366 32 32 24.8366 32 16Z" fill="url(#paint0_linear_21_1251)" fill-opacity="0.05"/>
<path d="M28 16C28 9.37258 22.6274 4 16 4C9.37258 4 4 9.37258 4 16C4 22.6274 9.37258 28 16 28C22.6274 28 28 22.6274 28 16Z" fill="url(#paint1_linear_21_1251)" fill-opacity="0.1"/>
<path d="M27.75 16C27.75 9.51065 22.4893 4.25 16 4.25C9.51065 4.25 4.25 9.51065 4.25 16C4.25 22.4893 9.51065 27.75 16 27.75C22.4893 27.75 27.75 22.4893 27.75 16Z" stroke="url(#paint2_linear_21_1251)" stroke-opacity="0.2"/>
<path fill-rule="evenodd" clip-rule="evenodd" d="M14.125 13.375C14.125 12.3395 14.9645 11.5 16 11.5C17.0356 11.5 17.875 12.3395 17.875 13.375C17.875 14.4106 17.0356 15.25 16 15.25C14.9645 15.25 14.125 14.4106 14.125 13.375Z" fill="#CAFF33"/>
<path fill-rule="evenodd" clip-rule="evenodd" d="M17.875 14.875C17.875 14.0465 18.5465 13.375 19.375 13.375C20.2034 13.375 20.875 14.0465 20.875 14.875C20.875 15.7034 20.2034 16.375 19.375 16.375C18.5465 16.375 17.875 15.7034 17.875 14.875Z" fill="#CAFF33"/>
<path fill-rule="evenodd" clip-rule="evenodd" d="M11.125 14.875C11.125 14.0465 11.7965 13.375 12.625 13.375C13.4534 13.375 14.125 14.0465 14.125 14.875C14.125 15.7034 13.4534 16.375 12.625 16.375C11.7965 16.375 11.125 15.7034 11.125 14.875Z" fill="#CAFF33"/>
<path fill-rule="evenodd" clip-rule="evenodd" d="M13.1549 17.5588C13.7539 16.6222 14.8041 16 16 16C17.1959 16 18.2463 16.6223 18.8453 17.5591C19.2593 18.2067 19.4385 18.9876 19.3545 19.7489C19.3413 19.8679 19.2722 19.9735 19.1684 20.0331C18.2347 20.5688 17.1525 20.875 16 20.875C14.8474 20.875 13.7653 20.5688 12.8316 20.0331C12.7278 19.9735 12.6586 19.8679 12.6455 19.7489C12.5614 18.9874 12.7407 18.2065 13.1549 17.5588Z" fill="#CAFF33"/>
<path d="M12.5412 17.1268C12.5351 17.1361 12.5292 17.1453 12.5232 17.1546C12.0405 17.9094 11.8196 18.8083 11.8874 19.6945C11.5834 19.6483 11.2884 19.574 11.0052 19.4743L10.9478 19.4541C10.8429 19.4171 10.7696 19.3219 10.7608 19.2111L10.7559 19.1503C10.752 19.1007 10.75 19.0505 10.75 19C10.75 17.9925 11.5445 17.1707 12.5412 17.1268Z" fill="#CAFF33"/>
<path d="M20.1127 19.6945C20.1805 18.8085 19.9597 17.9098 19.4772 17.1551C19.4711 17.1456 19.4651 17.1362 19.459 17.1268C20.4555 17.1708 21.2499 17.9926 21.2499 19C21.2499 19.0505 21.2479 19.1007 21.244 19.1503L21.2391 19.2111C21.2303 19.3219 21.157 19.4171 21.0522 19.4541L20.9947 19.4743C20.7116 19.574 20.4167 19.6483 20.1127 19.6945Z" fill="#CAFF33"/>
</g>
<defs>
<linearGradient id="paint0_linear_21_1251" x1="16" y1="0" x2="16" y2="32" gradientUnits="userSpaceOnUse">
<stop stop-color="#CAFF33"/>
<stop offset="1" stop-color="#CAFF33" stop-opacity="0"/>
</linearGradient>
<linearGradient id="paint1_linear_21_1251" x1="16" y1="-11.8919" x2="16" y2="65.946" gradientUnits="userSpaceOnUse">
<stop stop-color="#CAFF33"/>
<stop offset="0.467671" stop-color="#CAFF33" stop-opacity="0"/>
</linearGradient>
<linearGradient id="paint2_linear_21_1251" x1="16" y1="-37.6757" x2="16" y2="49.7297" gradientUnits="userSpaceOnUse">
<stop stop-color="#CAFF33"/>
<stop offset="0.716291" stop-color="#CAFF33" stop-opacity="0"/>
</linearGradient>
<clipPath id="clip0_21_1251">
<rect width="32" height="32" rx="16" fill="white"/>
</clipPath>
</defs>
</svg>
