<svg width="52" height="52" viewBox="0 0 52 52" fill="none" xmlns="http://www.w3.org/2000/svg">
<rect width="52" height="52" rx="26" fill="url(#paint0_linear_5_1300)" fill-opacity="0.1"/>
<rect x="0.5" y="0.5" width="51" height="51" rx="25.5" stroke="url(#paint1_linear_5_1300)" stroke-opacity="0.2"/>
<g clip-path="url(#clip0_5_1300)">
<path d="M38 26C38 19.3726 32.6274 14 26 14C19.3726 14 14 19.3726 14 26C14 31.9895 18.3882 36.954 24.125 37.8542V29.4688H21.0781V26H24.125V23.3563C24.125 20.3488 25.9166 18.6875 28.6576 18.6875C29.9701 18.6875 31.3438 18.9219 31.3438 18.9219V21.875H29.8306C28.34 21.875 27.875 22.8001 27.875 23.75V26H31.2031L30.6711 29.4688H27.875V37.8542C33.6118 36.954 38 31.9895 38 26Z" fill="#CAFF33"/>
<path d="M30.6711 29.4688L31.2031 26H27.875V23.75C27.875 22.801 28.34 21.875 29.8306 21.875H31.3438V18.9219C31.3438 18.9219 29.9705 18.6875 28.6576 18.6875C25.9166 18.6875 24.125 20.3488 24.125 23.3563V26H21.0781V29.4688H24.125V37.8542C25.3674 38.0486 26.6326 38.0486 27.875 37.8542V29.4688H30.6711Z" fill="#1C1C1C"/>
</g>
<defs>
<linearGradient id="paint0_linear_5_1300" x1="26" y1="-34.4324" x2="26" y2="134.216" gradientUnits="userSpaceOnUse">
<stop stop-color="#CAFF33"/>
<stop offset="0.467671" stop-color="#CAFF33" stop-opacity="0"/>
</linearGradient>
<linearGradient id="paint1_linear_5_1300" x1="26" y1="-90.2973" x2="26" y2="99.0811" gradientUnits="userSpaceOnUse">
<stop stop-color="#CAFF33"/>
<stop offset="0.716291" stop-color="#CAFF33" stop-opacity="0"/>
</linearGradient>
<clipPath id="clip0_5_1300">
<rect width="24" height="24" fill="white" transform="translate(14 14)"/>
</clipPath>
</defs>
</svg>
