<svg width="16" height="17" viewBox="0 0 16 17" fill="none" xmlns="http://www.w3.org/2000/svg">
<path fill-rule="evenodd" clip-rule="evenodd" d="M7.69316 15.4007C7.7133 15.4124 7.72913 15.4214 7.74034 15.4277L7.75895 15.4381C7.90753 15.5196 8.09184 15.519 8.24056 15.4383L8.25966 15.4277C8.27087 15.4214 8.2867 15.4124 8.30684 15.4007C8.34711 15.3774 8.40465 15.3433 8.477 15.2988C8.62164 15.2097 8.82583 15.0784 9.06974 14.9061C9.55673 14.5621 10.2065 14.0516 10.8577 13.3849C12.1538 12.0579 13.5 10.0641 13.5 7.5C13.5 4.46243 11.0376 2 8 2C4.96243 2 2.5 4.46243 2.5 7.5C2.5 10.0641 3.84622 12.0579 5.1423 13.3849C5.7935 14.0516 6.44327 14.5621 6.93026 14.9061C7.17417 15.0784 7.37836 15.2097 7.523 15.2988C7.59535 15.3433 7.65289 15.3774 7.69316 15.4007ZM8 9.5C9.10457 9.5 10 8.60457 10 7.5C10 6.39543 9.10457 5.5 8 5.5C6.89543 5.5 6 6.39543 6 7.5C6 8.60457 6.89543 9.5 8 9.5Z" fill="white"/>
</svg>
