<svg width="16" height="17" viewBox="0 0 16 17" fill="none" xmlns="http://www.w3.org/2000/svg">
<path fill-rule="evenodd" clip-rule="evenodd" d="M8 2C4.41015 2 1.5 4.91015 1.5 8.5C1.5 12.0899 4.41015 15 8 15C11.5899 15 14.5 12.0899 14.5 8.5C14.5 4.91015 11.5899 2 8 2ZM5.69792 3.5035C3.81011 4.37473 2.5 6.28437 2.5 8.5C2.5 11.5376 4.96243 14 8 14C10.8761 14 13.2365 11.7925 13.4794 8.97938L13.1721 8.67212C13.0581 8.55812 12.9633 8.42648 12.8912 8.28228L12.1711 6.8422C12.0869 6.67385 11.8626 6.63744 11.7295 6.77053C11.5879 6.91216 11.3806 6.96587 11.188 6.91085L10.3394 6.6684C10.0171 6.57631 9.68264 6.7695 9.60135 7.09466C9.54058 7.33774 9.63918 7.59278 9.84766 7.73176L10.2388 7.99253C10.6326 8.25506 10.6878 8.81224 10.3531 9.1469L10.2197 9.28033C10.079 9.42098 10 9.61175 10 9.81066V10.0845C10 10.3564 9.92613 10.6231 9.78626 10.8563L8.90984 12.317C8.65559 12.7407 8.19764 13 7.70346 13C7.31496 13 7.00002 12.6851 7.00002 12.2966V11.5155C7.00002 10.9022 6.62659 10.3506 6.0571 10.1228L5.62101 9.9484C4.96652 9.6866 4.58262 9.0044 4.6985 8.30908L4.7032 8.28093C4.73413 8.0953 4.79973 7.91715 4.89655 7.75578L4.95616 7.65644C5.2823 7.11285 5.91496 6.83299 6.53657 6.95731L7.3218 7.11436C7.70492 7.19098 8.08269 6.96064 8.19003 6.58496L8.32902 6.0985C8.42817 5.75147 8.2661 5.38304 7.94329 5.22163L7.50002 5L7.43936 5.06066C7.15805 5.34196 6.77652 5.5 6.3787 5.5H6.25808C6.09285 5.5 5.93399 5.56603 5.81715 5.68287C5.62817 5.87185 5.33878 5.91938 5.09974 5.79986C4.77624 5.63811 4.6589 5.23519 4.84499 4.92504L5.69792 3.5035Z" fill="white"/>
</svg>
